# xmcd
#
# Track frame offsets:
#	150
#	16417
#	35862
#	56885
#	73704
#	86825
#	105844
#	126143
#	140238
#	156648
#	174774
#	191858
#	209050
#	223981
#	235806
#	251532
#	264990
#	282402
#	298270
#	318402
#
# Disc length: 4442 seconds
#
# Revision: 2
# Processed by: cddbd v1.5.2PL0 Copyright (c) Steve Scherf et al.
# Submitted via: EasyCDDAExtractor 11.5.0.1
#
DISCID=49115814
DTITLE=Various Artist - NCT 050
DYEAR=2003
DGENRE=Country
TTITLE0=Wynonna - What The World Needs
TTITLE1=Pat Green - Wave On Wave
TTITLE2=The Dixie Chicks - Godspeed (Sweet Dreams)
TTITLE3=Deric Ruttan - When You Come Around
TTITLE4=Jamie O'Neal - Every Little Thing
TTITLE5=Keith Urban - Who Wouldn't Wanna Be Me?
TTITLE6=Cooder Graw - Ain't Livin' Long Like This
TTITLE7=Dwight Yoakam - The Back Of Your Hand
TTITLE8=Patty Loveless - Lovin' All Night
TTITLE9=Josh Turner - Long Black Train
TTITLE10=Rick Trevino - In My Dreams
TTITLE11=Buddy Jewell - Help Pour Out The Rain (Lacey's Song)
TTITLE12=Colt Prather - The Dash
TTITLE13=John Michael Montgomery - Four Wheel Drive
TTITLE14=Jeff Carson - I Can Only Imagine
TTITLE15=Reckless Kelly - Let's Just Fall
TTITLE16=Dolly Parton - I'm Gone
TTITLE17=Rhonda Vincent - You Can't Take It With You When You Go
TTITLE18=Sherrie Austin - Streets Of Heaven
TTITLE19=Cledus T. Judd - 270 Somethin'
EXTD=
EXTT0=
EXTT1=
EXTT2=
EXTT3=
EXTT4=
EXTT5=
EXTT6=
EXTT7=
EXTT8=
EXTT9=
EXTT10=
EXTT11=
EXTT12=
EXTT13=
EXTT14=
EXTT15=
EXTT16=
EXTT17=
EXTT18=
EXTT19=
PLAYORDER=
